<?xml version="1.0" encoding="UTF-8"?>
<svg width="32" height="32" version="1.1" viewBox="0 0 32 32" xmlns="http://www.w3.org/2000/svg">
 <!-- Font Awesome Free 5.15.3 by @fontawesome - https://fontawesome.com License - https://fontawesome.com/license/free (Icons: CC BY 4.0, Fonts: SIL OFL 1.1, Code: MIT License) -->
 <path d="m20.413 11.587c3.7342 3.7381 3.6829 9.7311 0.0225 13.412-0.0069 0.0075-0.015 0.01563-0.0225 0.02313l-4.2 4.2c-3.7044 3.7044-9.7312 3.7039-13.435 0-3.7044-3.7037-3.7044-9.7312 0-13.435l2.3191-2.3191c0.615-0.615 1.6741-0.20625 1.7059 0.66287 0.0405 1.1076 0.23913 2.2204 0.60563 3.2951 0.12412 0.36387 0.035438 0.76637-0.23644 1.0382l-0.81794 0.81794c-1.7516 1.7516-1.8066 4.6037-0.072188 6.3725 1.7515 1.7862 4.6304 1.7968 6.3953 0.03188l4.2-4.1994c1.7619-1.7619 1.7546-4.6098 0-6.3644-0.23131-0.23087-0.46431-0.41025-0.64631-0.53556a1.0023 1.0023 0 0 1-0.43419-0.78788c-0.02475-0.66044 0.20925-1.341 0.73112-1.8629l1.3159-1.3159c0.34506-0.34506 0.88638-0.38744 1.2865-0.10819a9.5301 9.5301 0 0 1 1.2826 1.0748zm8.8084-8.8089c-3.7038-3.7039-9.7306-3.7044-13.435 0l-4.2 4.2c-0.0075 0.0075-0.01563 0.015625-0.0225 0.023125-3.6604 3.6807-3.7117 9.6738 0.0225 13.412a9.5284 9.5284 0 0 0 1.2826 1.0747c0.40012 0.27925 0.9415 0.23681 1.2865-0.10819l1.3159-1.3159c0.52188-0.52187 0.75588-1.2024 0.73112-1.8629a1.0023 1.0023 0 0 0-0.43419-0.78787c-0.182-0.12531-0.415-0.30469-0.64631-0.53556-1.7546-1.7546-1.7619-4.6024 0-6.3644l4.2-4.1994c1.7649-1.7649 4.6438-1.7543 6.3953 0.031875 1.7344 1.7687 1.6795 4.6209-0.07219 6.3725l-0.81794 0.81794c-0.27188 0.27188-0.36056 0.67437-0.23644 1.0382 0.3665 1.0746 0.56512 2.1874 0.60562 3.2951 0.03181 0.86912 1.0909 1.2779 1.7059 0.66287l2.3191-2.3191c3.7044-3.7037 3.7044-9.7312 6.3e-5 -13.435z" fill="#fc0" stroke-width=".0625"/>
</svg>
