<?xml version="1.0" encoding="UTF-8"?>
<svg width="32" height="32" version="1.1" viewBox="0 0 32 32" xmlns="http://www.w3.org/2000/svg">
 <!-- Font Awesome Free 5.15.3 by @fontawesome - https://fontawesome.com License - https://fontawesome.com/license/free (Icons: CC BY 4.0, Fonts: SIL OFL 1.1, Code: MIT License) -->
 <path d="m18.276 5.9286c1.9254 1.9128 1.899 4.9795 0.0116 6.8631-4e-3 0.0038-8e-3 8e-3 -0.0116 0.01183l-2.1656 2.1492c-1.91 1.8956-5.0176 1.8953-6.9275 0-1.91-1.8952-1.91-4.9796 0-6.875l1.1958-1.1867c0.31711-0.3147 0.86324-0.10554 0.87955 0.3392 0.0209 0.56679 0.1233 1.1362 0.31228 1.6861 0.064 0.1862 0.0183 0.39217-0.12191 0.53128l-0.42175 0.41855c-0.90319 0.89631-0.9315 2.3558-0.0372 3.2609 0.90312 0.914 2.3876 0.91943 3.2975 0.01631l2.1656-2.1489c0.90849-0.90162 0.90468-2.3589 0-3.2567-0.11927-0.11814-0.23942-0.20993-0.33326-0.27405a0.51682 0.5129 0 0 1-0.22388-0.40317c-0.0128-0.33795 0.10789-0.68618 0.37699-0.95325l0.67849-0.67337c0.17793-0.17657 0.45704-0.19826 0.66338-0.055361a4.914 4.8767 0 0 1 0.66137 0.55zm4.5418-4.5077c-1.9097-1.8953-5.0174-1.8956-6.9275 0l-2.1656 2.1492c-4e-3 0.00384-8e-3 8e-3 -0.0116 0.011834-1.8874 1.8835-1.9138 4.9502 0.0116 6.8631a4.913 4.8758 0 0 0 0.66131 0.54997c0.20631 0.1429 0.48546 0.12118 0.66337-0.05536l0.6785-0.67337c0.26909-0.26705 0.38975-0.6153 0.37698-0.95324a0.51682 0.5129 0 0 0-0.22387-0.40317c-0.0938-0.064125-0.21399-0.15591-0.33325-0.27405-0.90469-0.89781-0.9085-2.3551 0-3.2567l2.1656-2.1489c0.91006-0.90312 2.3944-0.89768 3.2976 0.016311 0.8943 0.90512 0.86599 2.3646-0.0372 3.2609l-0.42174 0.41855c-0.14019 0.13912-0.18592 0.34509-0.12192 0.53128 0.18898 0.5499 0.2914 1.1194 0.31228 1.6861 0.0164 0.44474 0.56248 0.65393 0.87956 0.3392l1.1958-1.1867c1.9101-1.8952 1.9101-4.9796 3e-5 -6.875z" fill="#fc0" stroke-width=".032104"/>
 <path d="m18.276 21.554c1.9254 1.9128 1.899 4.9795 0.0116 6.8631-4e-3 0.0038-8e-3 8e-3 -0.0116 0.01183l-2.1656 2.1492c-1.91 1.8956-5.0176 1.8953-6.9275 0-1.91-1.8952-1.91-4.9796 0-6.875l1.1958-1.1867c0.31711-0.3147 0.86324-0.10554 0.87955 0.3392 0.0209 0.56679 0.1233 1.1362 0.31228 1.6861 0.064 0.1862 0.0183 0.39217-0.12191 0.53129l-0.42175 0.41855c-0.90319 0.89631-0.9315 2.3558-0.0372 3.2609 0.90312 0.914 2.3876 0.91943 3.2975 0.01631l2.1656-2.1489c0.90849-0.90162 0.90468-2.3589 0-3.2567-0.11927-0.11814-0.23942-0.20993-0.33326-0.27405a0.51682 0.5129 0 0 1-0.22388-0.40317c-0.0128-0.33796 0.10789-0.68618 0.37699-0.95324l0.67849-0.67337c0.17793-0.17657 0.45704-0.19826 0.66338-0.05536a4.914 4.8767 0 0 1 0.66137 0.55zm4.5418-4.5077c-1.9097-1.8953-5.0174-1.8956-6.9275 0l-2.1656 2.1492c-4e-3 0.0038-8e-3 8e-3 -0.0116 0.01183-1.8874 1.8835-1.9138 4.9502 0.0116 6.8631a4.913 4.8758 0 0 0 0.66131 0.54997c0.20631 0.1429 0.48546 0.12118 0.66337-0.05536l0.6785-0.67337c0.26909-0.26705 0.38975-0.6153 0.37698-0.95324a0.51682 0.5129 0 0 0-0.22387-0.40317c-0.0938-0.06412-0.21398-0.15591-0.33325-0.27406-0.90469-0.89781-0.9085-2.3551 0-3.2567l2.1656-2.1489c0.91006-0.90312 2.3944-0.89768 3.2976 0.01631 0.8943 0.90512 0.86599 2.3646-0.0372 3.2609l-0.42174 0.41855c-0.14019 0.13912-0.18592 0.34509-0.12192 0.53128 0.18898 0.5499 0.2914 1.1194 0.31228 1.6861 0.0164 0.44474 0.56248 0.65394 0.87956 0.3392l1.1958-1.1867c1.9101-1.8952 1.9101-4.9796 3e-5 -6.875z" fill="#fc0" stroke-width=".032104"/>
</svg>
