<?xml version="1.0" encoding="UTF-8"?>
<svg width="32" height="32" version="1.1" viewBox="0 0 32 32" xmlns="http://www.w3.org/2000/svg">
 <!-- Font Awesome Free 5.15.3 by @fontawesome - https://fontawesome.com License - https://fontawesome.com/license/free (Icons: CC BY 4.0, Fonts: SIL OFL 1.1, Code: MIT License) -->
 <path d="m11.79 27.409h-2.9764a0.74409 0.74409 0 0 0-0.74409 0.74409v2.9764a0.74409 0.74409 0 0 0 0.74409 0.74409h2.9764a0.74409 0.74409 0 0 0 0.74409-0.74409v-2.9764a0.74409 0.74409 0 0 0-0.74409-0.74409zm0-14.882h-2.9764a0.74409 0.74409 0 0 0-0.74409 0.74409v2.9764a0.74409 0.74409 0 0 0 0.74409 0.74409h2.9764a0.74409 0.74409 0 0 0 0.74409-0.74409v-2.9764a0.74409 0.74409 0 0 0-0.74409-0.74409zm0 7.4409h-2.9764a0.74409 0.74409 0 0 0-0.74409 0.74409v2.9764a0.74409 0.74409 0 0 0 0.74409 0.74409h2.9764a0.74409 0.74409 0 0 0 0.74409-0.74409v-2.9764a0.74409 0.74409 0 0 0-0.74409-0.74409zm19.346 8.185h-14.882a0.74409 0.74409 0 0 0-0.74409 0.7441v1.4882a0.74409 0.74409 0 0 0 0.74409 0.74409h14.882a0.74409 0.74409 0 0 0 0.74409-0.74409v-1.4882a0.74409 0.74409 0 0 0-0.74409-0.7441zm0-14.882h-14.882a0.74409 0.74409 0 0 0-0.74409 0.74409v1.4882a0.74409 0.74409 0 0 0 0.74409 0.7441h14.882a0.74409 0.74409 0 0 0 0.74409-0.7441v-1.4882a0.74409 0.74409 0 0 0-0.74409-0.74409zm0 7.4409h-14.882a0.74409 0.74409 0 0 0-0.74409 0.74409v1.4882a0.74409 0.74409 0 0 0 0.74409 0.74409h14.882a0.74409 0.74409 0 0 0 0.74409-0.74409v-1.4882a0.74409 0.74409 0 0 0-0.74409-0.74409z" fill="#d4aa00" stroke-width=".046506"/>
 <path d="m10.177 5.7767c1.8617 1.8637 1.8362 4.8515 0.01122 6.6868-0.0034 0.0037-0.0075 0.0078-0.01122 0.01153l-2.0939 2.0939c-1.8468 1.8468-4.8515 1.8466-6.6981 0-1.8468-1.8465-1.8468-4.8515 0-6.6981l1.1562-1.1562c0.30661-0.30661 0.83464-0.10283 0.85047 0.33048 0.020191 0.55221 0.11922 1.107 0.30194 1.6428 0.061883 0.18141 0.017667 0.38208-0.11788 0.51762l-0.40778 0.40778c-0.87328 0.87328-0.9007 2.2952-0.035989 3.177 0.87322 0.89054 2.3085 0.89584 3.1884 0.01589l2.0939-2.0936c0.87845-0.87845 0.87471-2.2983 0-3.173-0.11532-0.1151-0.23148-0.20453-0.32222-0.26701a0.49971 0.49971 0 0 1-0.21647-0.3928c-0.01234-0.32926 0.10432-0.66856 0.3645-0.92874l0.65603-0.6561c0.17203-0.17203 0.4419-0.19316 0.64139-0.053937a4.7513 4.7513 0 0 1 0.63946 0.53585zm4.3915-4.3917c-1.8465-1.8466-4.8512-1.8468-6.6981 0l-2.0939 2.0939c-0.00374 0.00374-0.00779 0.00779-0.011217 0.011529-1.8249 1.835-1.8505 4.8229 0.011217 6.6868a4.7504 4.7504 0 0 0 0.63939 0.53582c0.19948 0.13922 0.46939 0.11806 0.64139-0.05394l0.65603-0.65609c0.26018-0.26018 0.37684-0.59948 0.3645-0.92874a0.49971 0.49971 0 0 0-0.21647-0.3928c-0.090737-0.062475-0.2069-0.1519-0.32222-0.26701-0.87471-0.87477-0.87845-2.2946 0-3.173l2.0939-2.0936c0.87995-0.87995 2.3152-0.87459 3.1884 0.015891 0.86468 0.88182 0.83732 2.3038-0.03599 3.177l-0.40778 0.40778c-0.13554 0.13554-0.17976 0.33621-0.11788 0.51762 0.18272 0.53576 0.28174 1.0906 0.30194 1.6428 0.01586 0.4333 0.54386 0.63709 0.85047 0.33048l1.1562-1.1562c1.8469-1.8465 1.8469-4.8515 3.1e-5 -6.6981z" fill="#fc0" stroke-width=".03116"/>
</svg>
